<svg xmlns="http://www.w3.org/2000/svg" viewBox="0 0 640 400"><defs><linearGradient id="sky" x1="0" y1="0" x2="0" y2="1"><stop offset="0" stop-color="#38bdf8"/><stop offset=".7" stop-color="#bae6fd"/><stop offset="1" stop-color="#fef3c7"/></linearGradient><linearGradient id="pipe" x1="0" y1="0" x2="1" y2="0"><stop offset="0" stop-color="#15803d"/><stop offset=".35" stop-color="#86efac"/><stop offset="1" stop-color="#14532d"/></linearGradient><radialGradient id="body" cx=".38" cy=".3" r=".75"><stop offset="0" stop-color="#fef08a"/><stop offset="1" stop-color="#f59e0b"/></radialGradient><linearGradient id="gr" x1="0" y1="0" x2="0" y2="1"><stop offset="0" stop-color="#fcd34d"/><stop offset="1" stop-color="#b45309"/></linearGradient></defs><rect width="640" height="400" fill="url(#sky)"/><circle cx="540" cy="70" r="36" fill="#fef08a" opacity=".9"/><g fill="#fff" opacity=".9" transform="translate(90 70) scale(1)"><circle cx="-26" cy="6" r="18"/><circle cx="0" cy="-4" r="24"/><circle cx="26" cy="6" r="18"/><rect x="-44" y="6" width="88" height="18" rx="9"/></g><g fill="#fff" opacity=".9" transform="translate(330 50) scale(0.8)"><circle cx="-26" cy="6" r="18"/><circle cx="0" cy="-4" r="24"/><circle cx="26" cy="6" r="18"/><rect x="-44" y="6" width="88" height="18" rx="9"/></g><g fill="#fff" opacity=".9" transform="translate(600 150) scale(0.7)"><circle cx="-26" cy="6" r="18"/><circle cx="0" cy="-4" r="24"/><circle cx="26" cy="6" r="18"/><rect x="-44" y="6" width="88" height="18" rx="9"/></g><path d="M0 330 L90 230 L150 280 L230 200 L330 330 Z M300 330 L420 240 L480 290 L560 220 L640 300 V330Z" fill="#6366f1" opacity=".3"/><path d="M-20 340 Q80 270 180 340 Q280 280 400 340 Q520 270 660 340 V360 H-20Z" fill="#4ade80"/><rect x="57" y="304" width="6" height="36" fill="#854d0e"/><circle cx="60" cy="300" r="15" fill="#15803d"/><rect x="247" y="314" width="6" height="26" fill="#854d0e"/><circle cx="250" cy="310" r="15" fill="#15803d"/><rect x="467" y="298" width="6" height="42" fill="#854d0e"/><circle cx="470" cy="294" r="15" fill="#15803d"/><rect x="587" y="310" width="6" height="30" fill="#854d0e"/><circle cx="590" cy="306" r="15" fill="#15803d"/><rect x="124" y="0" width="68" height="120" fill="url(#pipe)"/><rect x="120" y="94" width="76" height="26" rx="5" fill="url(#pipe)" stroke="#052e16" stroke-width="3"/><rect x="124" y="260" width="68" height="100" fill="url(#pipe)"/><rect x="120" y="260" width="76" height="26" rx="5" fill="url(#pipe)" stroke="#052e16" stroke-width="3"/><rect x="424" y="0" width="68" height="80" fill="url(#pipe)"/><rect x="420" y="54" width="76" height="26" rx="5" fill="url(#pipe)" stroke="#052e16" stroke-width="3"/><rect x="424" y="220" width="68" height="140" fill="url(#pipe)"/><rect x="420" y="220" width="76" height="26" rx="5" fill="url(#pipe)" stroke="#052e16" stroke-width="3"/><rect x="0" y="352" width="640" height="48" fill="url(#gr)"/><rect x="0" y="352" width="640" height="10" fill="#65a30d"/><g fill="#84cc16"><path d="M0 362l10-9 10 9z"/><path d="M30 362l10-9 10 9z"/><path d="M60 362l10-9 10 9z"/><path d="M90 362l10-9 10 9z"/><path d="M120 362l10-9 10 9z"/><path d="M150 362l10-9 10 9z"/><path d="M180 362l10-9 10 9z"/><path d="M210 362l10-9 10 9z"/><path d="M240 362l10-9 10 9z"/><path d="M270 362l10-9 10 9z"/><path d="M300 362l10-9 10 9z"/><path d="M330 362l10-9 10 9z"/><path d="M360 362l10-9 10 9z"/><path d="M390 362l10-9 10 9z"/><path d="M420 362l10-9 10 9z"/><path d="M450 362l10-9 10 9z"/><path d="M480 362l10-9 10 9z"/><path d="M510 362l10-9 10 9z"/><path d="M540 362l10-9 10 9z"/><path d="M570 362l10-9 10 9z"/><path d="M600 362l10-9 10 9z"/><path d="M630 362l10-9 10 9z"/></g><g transform="translate(300 170) rotate(-12)"><path d="M-26 -4 L-50 -16 L-46 6 L-26 10Z" fill="#ea580c"/><ellipse cx="0" cy="0" rx="34" ry="30" fill="url(#body)" stroke="#78350f" stroke-width="3"/><ellipse cx="4" cy="14" rx="20" ry="11" fill="#fffbeb"/><path d="M-2 -28 q8 -24 20 -14" stroke="#ea580c" stroke-width="5" fill="none" stroke-linecap="round"/><ellipse cx="-12" cy="-12" rx="22" ry="11" fill="#fbbf24" stroke="#78350f" stroke-width="3" transform="rotate(-35 -12 -12)"/><circle cx="15" cy="-8" r="12" fill="#fff" stroke="#78350f" stroke-width="2"/><circle cx="19" cy="-8" r="6" fill="#111827"/><circle cx="21" cy="-11" r="2" fill="#fff"/><path d="M6 -22 l18 4" stroke="#78350f" stroke-width="3" stroke-linecap="round"/><path d="M28 2 L52 8 L28 16Z" fill="#f97316" stroke="#9a3412" stroke-width="2"/><circle cx="4" cy="6" r="5" fill="#f472b6" opacity=".55"/></g><path d="M258 132 q8 12 0 17 q-8 -5 0 -17z" fill="#7dd3fc"/><ellipse cx="236" cy="214" rx="9" ry="4" fill="#fde68a" stroke="#b45309" transform="rotate(30 236 214)"/><ellipse cx="214" cy="190" rx="9" ry="4" fill="#fde68a" stroke="#b45309" transform="rotate(-20 214 190)"/><ellipse cx="250" cy="240" rx="9" ry="4" fill="#fde68a" stroke="#b45309" transform="rotate(60 250 240)"/></svg>
